# xmcd
#
# Track frame offsets:
# 150
# 19093
# 37809
# 55262
# 74129
# 89728
# 108301
# 119460
# 133692
# 151594
#
# Disc length: 2144 seconds
#
# Revision: 1
# Processed by: cddbd v1.5.1PL2 Copyright (c) Steve Scherf et al.
# Submitted via: CedeCatalogueitor 2.6.0.6 http://personales.ya.com/cdcatalogueitor
#
DISCID=85085e0a
DTITLE=Aaron Lordson - Please Don't Leave Me
DYEAR=2004
DGENRE=
TTITLE0=Love
TTITLE1=Please Don't Leave Me
TTITLE2=Midnight
TTITLE3=I Never Knew You Love Me
TTITLE4=When Love Is True
TTITLE5=Kill My Softly
TTITLE6=Lord Son
TTITLE7=First Woman Qualities
TTITLE8=How I Am Feeling
TTITLE9=Tesesse Waltz
EXTD=
EXTT0=
EXTT1=
EXTT2=
EXTT3=
EXTT4=
EXTT5=
EXTT6=
EXTT7=
EXTT8=
EXTT9=
PLAYORDER=
